<?xml version="1.0" encoding="UTF-8" standalone="no"?>
<!-- Created with Inkscape (http://www.inkscape.org/) -->

<svg
   version="1.1"
   id="svg1"
   width="800"
   height="533.33331"
   viewBox="0 0 800 533.33331"
   sodipodi:docname="best-empathy-header-logo.svg"
   inkscape:version="1.3.2 (091e20e, 2023-11-25, custom)"
   xmlns:inkscape="http://www.inkscape.org/namespaces/inkscape"
   xmlns:sodipodi="http://sodipodi.sourceforge.net/DTD/sodipodi-0.dtd"
   xmlns="http://www.w3.org/2000/svg"
   xmlns:svg="http://www.w3.org/2000/svg">
  <defs
     id="defs1">
    <clipPath
       clipPathUnits="userSpaceOnUse"
       id="clipPath3">
      <path
         d="M 0,400 H 600 V 0 H 0 Z"
         transform="translate(-78.062199,-105.88801)"
         id="path3" />
    </clipPath>
    <clipPath
       clipPathUnits="userSpaceOnUse"
       id="clipPath5">
      <path
         d="M 0,400 H 600 V 0 H 0 Z"
         transform="translate(-134.1639,-126.1181)"
         id="path5" />
    </clipPath>
    <clipPath
       clipPathUnits="userSpaceOnUse"
       id="clipPath7">
      <path
         d="M 0,400 H 600 V 0 H 0 Z"
         transform="translate(-167.8258,-138.49111)"
         id="path7" />
    </clipPath>
    <clipPath
       clipPathUnits="userSpaceOnUse"
       id="clipPath9">
      <path
         d="M 0,400 H 600 V 0 H 0 Z"
         transform="translate(-199.3681,-138.2402)"
         id="path9" />
    </clipPath>
    <clipPath
       clipPathUnits="userSpaceOnUse"
       id="clipPath11">
      <path
         d="M 0,400 H 600 V 0 H 0 Z"
         transform="translate(-228.5419,-142.7956)"
         id="path11" />
    </clipPath>
    <clipPath
       clipPathUnits="userSpaceOnUse"
       id="clipPath13">
      <path
         d="M 0,400 H 600 V 0 H 0 Z"
         transform="translate(-328.03011,-102.1259)"
         id="path13" />
    </clipPath>
    <clipPath
       clipPathUnits="userSpaceOnUse"
       id="clipPath15">
      <path
         d="M 0,400 H 600 V 0 H 0 Z"
         transform="translate(-374.40921,-107.852)"
         id="path15" />
    </clipPath>
    <clipPath
       clipPathUnits="userSpaceOnUse"
       id="clipPath17">
      <path
         d="M 0,400 H 600 V 0 H 0 Z"
         transform="translate(-426.06451,-120.09961)"
         id="path17" />
    </clipPath>
    <clipPath
       clipPathUnits="userSpaceOnUse"
       id="clipPath19">
      <path
         d="M 0,400 H 600 V 0 H 0 Z"
         transform="translate(-463.21671,-138.2402)"
         id="path19" />
    </clipPath>
    <clipPath
       clipPathUnits="userSpaceOnUse"
       id="clipPath21">
      <path
         d="M 0,400 H 600 V 0 H 0 Z"
         transform="translate(-491.26861,-133.8932)"
         id="path21" />
    </clipPath>
    <clipPath
       clipPathUnits="userSpaceOnUse"
       id="clipPath23">
      <path
         d="M 0,400 H 600 V 0 H 0 Z"
         transform="translate(-556.92901,-135.27241)"
         id="path23" />
    </clipPath>
    <clipPath
       clipPathUnits="userSpaceOnUse"
       id="clipPath25">
      <path
         d="M 0,400 H 600 V 0 H 0 Z"
         transform="translate(-376.02491,-265.1882)"
         id="path25" />
    </clipPath>
    <clipPath
       clipPathUnits="userSpaceOnUse"
       id="clipPath27">
      <path
         d="M 0,400 H 600 V 0 H 0 Z"
         transform="translate(-341.27451,-274.81601)"
         id="path27" />
    </clipPath>
    <clipPath
       clipPathUnits="userSpaceOnUse"
       id="clipPath29">
      <path
         d="M 0,400 H 600 V 0 H 0 Z"
         transform="translate(-376.02491,-265.1882)"
         id="path29" />
    </clipPath>
    <clipPath
       clipPathUnits="userSpaceOnUse"
       id="clipPath31">
      <path
         d="M 0,400 H 600 V 0 H 0 Z"
         transform="translate(-230.3434,-250.8854)"
         id="path31" />
    </clipPath>
    <clipPath
       clipPathUnits="userSpaceOnUse"
       id="clipPath33">
      <path
         d="M 0,400 H 600 V 0 H 0 Z"
         transform="translate(-303.42901,-207.3389)"
         id="path33" />
    </clipPath>
  </defs>
  <sodipodi:namedview
     id="namedview1"
     pagecolor="#ffffff"
     bordercolor="#000000"
     borderopacity="0.25"
     inkscape:showpageshadow="2"
     inkscape:pageopacity="0.0"
     inkscape:pagecheckerboard="0"
     inkscape:deskcolor="#d1d1d1"
     inkscape:zoom="0.72843752"
     inkscape:cx="70.012868"
     inkscape:cy="96.782494"
     inkscape:window-width="1920"
     inkscape:window-height="991"
     inkscape:window-x="-9"
     inkscape:window-y="-9"
     inkscape:window-maximized="1"
     inkscape:current-layer="layer-MC2">
    <inkscape:page
       x="0"
       y="0"
       inkscape:label="1"
       id="page1"
       width="800"
       height="533.33331"
       margin="0"
       bleed="0" />
  </sodipodi:namedview>
  <g
     id="layer-MC0"
     inkscape:groupmode="layer"
     inkscape:label="Grid" />
  <g
     id="layer-MC1"
     inkscape:groupmode="layer"
     inkscape:label="Fonts" />
  <g
     id="layer-MC2"
     inkscape:groupmode="layer"
     inkscape:label="Logo">
    <path
       id="path2"
       d="m 0,0 c 0,-0.642 0.062,-1.247 0.187,-1.819 0.124,-0.571 0.375,-1.065 0.748,-1.483 0.374,-0.419 0.886,-0.753 1.537,-1.003 0.651,-0.251 1.504,-0.377 2.557,-0.377 1.523,0 2.922,0.44 4.198,1.317 1.273,0.878 2.368,2.007 3.283,3.386 0.912,1.379 1.62,2.926 2.119,4.639 0.498,1.714 0.747,3.421 0.747,5.121 0,2.535 -0.34,4.772 -1.018,6.709 -0.678,1.936 -1.628,3.573 -2.846,4.911 -1.219,1.337 -2.66,2.375 -4.322,3.114 -1.663,0.738 -3.463,1.163 -5.402,1.274 l 0.829,2.132 c 1.22,-0.056 2.383,0.111 3.493,0.502 1.107,0.39 2.084,1.072 2.928,2.048 0.846,0.975 1.518,2.292 2.016,3.95 0.5,1.657 0.749,3.741 0.749,6.249 0,1.699 -0.208,3.232 -0.625,4.598 -0.414,1.364 -0.962,2.514 -1.64,3.447 C 8.858,49.649 8.07,50.367 7.17,50.868 6.267,51.37 5.347,51.621 4.405,51.621 3.824,51.621 3.262,51.55 2.723,51.412 2.182,51.273 1.711,51.036 1.309,50.701 0.906,50.367 0.589,49.928 0.353,49.384 0.118,48.841 0,48.165 0,47.357 Z m 0.832,55.048 c 8.034,0 13.943,-1.261 17.723,-3.783 3.783,-2.522 5.673,-6.192 5.673,-11.013 0,-1.199 -0.131,-2.299 -0.394,-3.302 C 23.57,35.946 23.23,35.034 22.815,34.211 22.4,33.389 21.928,32.658 21.403,32.017 20.876,31.376 20.335,30.818 19.781,30.346 18.479,29.203 17.01,28.311 15.376,27.67 v -0.627 c 2.578,-0.307 4.89,-1.087 6.941,-2.341 0.857,-0.529 1.703,-1.191 2.535,-1.984 0.831,-0.795 1.572,-1.756 2.223,-2.885 0.651,-1.128 1.178,-2.438 1.578,-3.929 0.403,-1.491 0.604,-3.197 0.604,-5.121 0,-2.925 -0.527,-5.559 -1.581,-7.899 -1.051,-2.341 -2.617,-4.326 -4.695,-5.957 -2.078,-1.63 -4.668,-2.877 -7.771,-3.74 -3.102,-0.864 -6.705,-1.296 -10.805,-1.296 -3.795,0 -6.885,0.237 -9.266,0.71 -2.383,0.474 -4.239,1.164 -5.569,2.07 -1.331,0.905 -2.238,1.998 -2.723,3.281 -0.485,1.281 -0.728,2.73 -0.728,4.347 v 45.727 c 0,1.532 -1.051,2.299 -3.158,2.299 -1.523,0 -3.068,-0.229 -4.634,-0.69 -1.565,-0.459 -2.978,-1.087 -4.239,-1.881 -1.261,-0.794 -2.291,-1.741 -3.096,-2.842 -0.803,-1.101 -1.205,-2.292 -1.205,-3.574 0,-0.891 0.118,-1.603 0.355,-2.132 0.234,-0.529 0.504,-0.926 0.809,-1.191 0.304,-0.264 0.618,-0.431 0.935,-0.501 0.319,-0.07 0.547,-0.105 0.686,-0.105 0.693,0 1.261,0.119 1.703,0.356 0.444,0.237 0.846,0.486 1.207,0.752 0.359,0.264 0.699,0.515 1.018,0.753 0.318,0.236 0.685,0.354 1.102,0.354 0.331,0 0.684,-0.076 1.059,-0.229 0.374,-0.153 0.72,-0.397 1.037,-0.732 0.32,-0.334 0.589,-0.772 0.811,-1.316 0.222,-0.543 0.334,-1.206 0.334,-1.986 0,-1.114 -0.216,-2.076 -0.645,-2.883 -0.429,-0.809 -0.983,-1.484 -1.663,-2.028 -0.678,-0.543 -1.454,-0.947 -2.327,-1.212 -0.873,-0.265 -1.738,-0.397 -2.597,-0.397 -1.329,0 -2.528,0.229 -3.594,0.69 -1.068,0.459 -1.974,1.093 -2.723,1.901 -0.748,0.808 -1.317,1.756 -1.702,2.843 -0.39,1.086 -0.583,2.243 -0.583,3.468 0,2.314 0.429,4.355 1.288,6.125 0.858,1.769 2.072,3.294 3.637,4.576 1.564,1.281 3.441,2.347 5.631,3.198 2.188,0.849 4.612,1.525 7.271,2.027 2.661,0.502 5.506,0.856 8.541,1.066 3.034,0.208 6.184,0.313 9.455,0.313"
       style="fill:#000000;fill-opacity:1;fill-rule:nonzero;stroke:none"
       transform="matrix(1.1730398,0,0,-1.4286235,228.89022,282.32256)"
       clip-path="url(#clipPath3)" />
    <path
       id="path4"
       d="m 0,0 c 0.361,0.223 0.657,0.439 0.894,0.648 0.234,0.21 0.423,0.459 0.562,0.753 0.137,0.292 0.24,0.654 0.311,1.087 0.068,0.431 0.104,0.967 0.104,1.608 0,0.697 -0.077,1.47 -0.228,2.321 -0.154,0.849 -0.409,1.651 -0.77,2.402 -0.361,0.753 -0.817,1.38 -1.371,1.881 -0.556,0.502 -1.219,0.753 -1.995,0.753 -0.997,0 -1.85,-0.299 -2.555,-0.899 C -5.755,9.955 -6.338,9.181 -6.794,8.235 -7.25,7.287 -7.611,6.207 -7.875,4.995 -8.138,3.783 -8.339,2.563 -8.478,1.338 -8.617,0.111 -8.7,-1.066 -8.727,-2.194 -8.754,-3.322 -8.769,-4.277 -8.769,-5.057 Z m -8.352,-8.484 c 0,-0.893 0.131,-1.861 0.394,-2.906 0.264,-1.045 0.645,-2.097 1.143,-3.155 0.498,-1.06 1.116,-2.069 1.85,-3.031 0.734,-0.962 1.578,-1.818 2.534,-2.57 0.956,-0.753 2.016,-1.352 3.18,-1.798 1.163,-0.446 2.437,-0.669 3.822,-0.669 0.971,0 1.871,0.111 2.702,0.335 0.832,0.223 1.608,0.529 2.327,0.92 0.72,0.39 1.413,0.842 2.078,1.358 0.666,0.516 1.33,1.065 1.995,1.651 l 1.039,-1.004 c -0.638,-0.864 -1.455,-1.811 -2.451,-2.842 -0.998,-1.031 -2.205,-1.999 -3.617,-2.905 -1.412,-0.906 -3.061,-1.658 -4.944,-2.257 -1.885,-0.598 -4.032,-0.898 -6.442,-0.898 -2.41,0 -4.759,0.439 -7.045,1.316 -2.285,0.878 -4.316,2.195 -6.087,3.951 -1.773,1.755 -3.194,3.942 -4.26,6.562 -1.068,2.619 -1.601,5.684 -1.601,9.195 0,2.536 0.32,4.863 0.956,6.98 0.637,2.118 1.504,4.027 2.599,5.727 1.093,1.699 2.368,3.19 3.822,4.473 1.454,1.28 2.985,2.346 4.592,3.197 1.607,0.85 3.248,1.49 4.925,1.922 1.676,0.433 3.29,0.648 4.841,0.648 2.051,0 3.837,-0.223 5.361,-0.669 1.524,-0.446 2.792,-1.044 3.804,-1.797 1.01,-0.753 1.765,-1.624 2.264,-2.612 0.498,-0.989 0.747,-2.027 0.747,-3.114 0,-1.311 -0.373,-2.487 -1.122,-3.532 C 10.307,2.947 9.31,2.033 8.063,1.254 Z"
       style="fill:#000000;fill-opacity:1;fill-rule:nonzero;stroke:none"
       transform="matrix(1.1730398,0,0,-1.4286235,294.69975,253.42137)"
       clip-path="url(#clipPath5)" />
    <path
       id="path6"
       d="m 0,0 c -0.637,0 -1.24,-0.084 -1.808,-0.251 -0.569,-0.168 -1.075,-0.44 -1.516,-0.815 -0.444,-0.376 -0.791,-0.85 -1.04,-1.422 -0.248,-0.571 -0.373,-1.247 -0.373,-2.027 0,-1.087 0.394,-2.167 1.184,-3.239 0.788,-1.073 1.772,-2.188 2.949,-3.344 1.178,-1.157 2.454,-2.356 3.825,-3.595 1.371,-1.24 2.646,-2.55 3.822,-3.929 1.178,-1.379 2.161,-2.849 2.951,-4.409 0.79,-1.562 1.184,-3.233 1.184,-5.016 0,-2.006 -0.338,-3.79 -1.018,-5.35 -0.678,-1.561 -1.649,-2.884 -2.907,-3.971 -1.261,-1.087 -2.786,-1.916 -4.573,-2.488 -1.786,-0.57 -3.775,-0.856 -5.963,-0.856 -1.912,0 -3.644,0.272 -5.195,0.815 -1.551,0.543 -2.929,1.212 -4.136,2.006 -1.205,0.795 -2.235,1.637 -3.094,2.53 -0.861,0.89 -1.524,1.698 -1.995,2.423 l 1.454,1.045 c 0.361,-0.418 0.817,-0.871 1.371,-1.358 0.553,-0.488 1.171,-0.941 1.85,-1.359 0.678,-0.418 1.406,-0.759 2.181,-1.023 0.776,-0.266 1.566,-0.397 2.369,-0.397 1.995,0 3.629,0.48 4.905,1.441 1.273,0.961 1.91,2.389 1.91,4.285 0,1.059 -0.347,2.153 -1.037,3.281 -0.695,1.128 -1.566,2.291 -2.62,3.49 -1.053,1.198 -2.188,2.438 -3.407,3.72 -1.22,1.281 -2.356,2.606 -3.408,3.971 -1.053,1.365 -1.926,2.772 -2.619,4.222 -0.693,1.448 -1.037,2.953 -1.037,4.514 0,1.755 0.353,3.288 1.058,4.598 0.707,1.309 1.649,2.396 2.827,3.26 1.178,0.864 2.522,1.511 4.031,1.943 1.51,0.432 3.068,0.648 4.675,0.648 1.856,0 3.546,-0.167 5.071,-0.502 1.522,-0.334 2.831,-0.843 3.926,-1.525 1.095,-0.683 1.939,-1.54 2.536,-2.571 0.595,-1.03 0.892,-2.229 0.892,-3.594 0,-1.06 -0.347,-1.979 -1.037,-2.759 -0.695,-0.78 -1.663,-1.17 -2.91,-1.17 -1.192,0 -2.099,0.257 -2.723,0.773 -0.622,0.515 -0.935,1.219 -0.935,2.111 0,0.585 0.147,1.045 0.437,1.379 0.291,0.335 0.616,0.607 0.977,0.815 0.359,0.21 0.685,0.39 0.977,0.543 0.29,0.154 0.436,0.356 0.436,0.607 0,0.78 -0.415,1.4 -1.247,1.859 C 2.368,-0.23 1.302,0 0,0"
       style="fill:#000000;fill-opacity:1;fill-rule:nonzero;stroke:none"
       transform="matrix(1.1730398,0,0,-1.4286235,334.1865,235.74501)"
       clip-path="url(#clipPath7)" />
    <path
       id="path8"
       d="m 0,0 v -30.889 c 0,-1.478 0.276,-2.502 0.832,-3.073 0.553,-0.571 1.315,-0.856 2.285,-0.856 0.749,0 1.412,0.208 1.995,0.626 0.581,0.418 1.081,0.892 1.496,1.422 0.499,0.585 0.929,1.267 1.287,2.048 l 1.29,-0.585 c -0.416,-0.893 -0.908,-1.867 -1.476,-2.926 -0.568,-1.06 -1.323,-2.042 -2.265,-2.947 -0.942,-0.906 -2.126,-1.666 -3.553,-2.278 -1.426,-0.612 -3.22,-0.919 -5.381,-0.919 -1.22,0 -2.39,0.181 -3.512,0.543 -1.122,0.362 -2.119,0.933 -2.992,1.713 -0.873,0.78 -1.572,1.756 -2.099,2.927 -0.527,1.17 -0.79,2.576 -0.79,4.221 V 0 h -4.654 v 3.009 c 0.776,0 1.856,0.201 3.241,0.606 1.386,0.404 2.806,1.079 4.26,2.027 1.454,0.948 2.804,2.216 4.053,3.804 1.246,1.588 2.132,3.553 2.659,5.894 H 0 V 3.009 h 6.773 c 2.217,0 3.325,0.377 3.325,1.128 0,0.279 -0.139,0.467 -0.415,0.565 C 9.405,4.799 9.094,4.925 8.748,5.078 8.401,5.231 8.09,5.447 7.812,5.726 7.537,6.004 7.398,6.464 7.398,7.105 c 0,0.78 0.242,1.394 0.728,1.84 0.483,0.445 1.113,0.669 1.889,0.669 0.5,0 0.935,-0.105 1.311,-0.315 C 11.699,9.091 12.01,8.812 12.259,8.464 12.51,8.115 12.697,7.718 12.821,7.272 12.945,6.826 13.008,6.38 13.008,5.935 13.008,4.123 12.489,2.682 11.45,1.609 10.411,0.536 8.742,0 6.442,0 Z"
       style="fill:#000000;fill-opacity:1;fill-rule:nonzero;stroke:none"
       transform="matrix(1.1730398,0,0,-1.4286235,371.18687,236.10346)"
       clip-path="url(#clipPath9)" />
    <path
       id="path10"
       d="m 0,0 c 0,3.26 0.894,6.033 2.68,8.318 1.787,2.285 4.232,4.159 7.335,5.622 3.103,1.463 6.717,2.529 10.847,3.198 4.127,0.669 8.546,1.003 13.256,1.003 2.244,0 4.432,-0.021 6.566,-0.063 2.134,-0.042 4.08,-0.104 5.84,-0.188 1.759,-0.083 3.275,-0.182 4.551,-0.293 1.273,-0.112 2.202,-0.236 2.783,-0.376 0.553,-0.139 0.997,-0.293 1.331,-0.46 0.332,-0.167 0.581,-0.363 0.747,-0.584 0.166,-0.224 0.278,-0.482 0.334,-0.774 0.054,-0.292 0.083,-0.635 0.083,-1.024 0,-0.334 -0.042,-0.705 -0.125,-1.108 -0.085,-0.404 -0.209,-0.78 -0.375,-1.128 -0.166,-0.349 -0.373,-0.648 -0.622,-0.899 -0.251,-0.251 -0.556,-0.377 -0.915,-0.377 -0.222,0 -0.465,0.098 -0.728,0.294 -0.263,0.194 -0.637,0.445 -1.122,0.752 -0.485,0.307 -1.136,0.627 -1.954,0.961 -0.817,0.335 -1.91,0.654 -3.283,0.961 -1.37,0.307 -3.075,0.558 -5.11,0.753 -2.036,0.195 -4.496,0.292 -7.377,0.292 v -26.793 h 17.247 v -3.678 H 34.742 v -16.342 c 0,-1.311 0.193,-2.432 0.581,-3.365 0.388,-0.934 0.942,-1.708 1.663,-2.32 0.72,-0.614 1.587,-1.06 2.597,-1.338 1.012,-0.278 2.14,-0.417 3.387,-0.417 1.414,0 2.826,0.146 4.239,0.438 1.414,0.293 2.75,0.662 4.011,1.108 1.261,0.446 2.41,0.946 3.449,1.504 1.039,0.557 1.877,1.101 2.513,1.63 l 1.622,-1.797 c -0.693,-0.558 -1.622,-1.317 -2.785,-2.278 -1.164,-0.961 -2.582,-1.902 -4.26,-2.821 -1.676,-0.919 -3.629,-1.721 -5.859,-2.403 -2.229,-0.683 -4.758,-1.025 -7.584,-1.025 -0.942,0 -2.016,0.049 -3.221,0.147 -1.205,0.098 -2.445,0.292 -3.719,0.584 -1.275,0.294 -2.528,0.725 -3.762,1.297 -1.232,0.57 -2.327,1.33 -3.283,2.278 -0.956,0.947 -1.731,2.11 -2.327,3.49 -0.595,1.379 -0.894,3.03 -0.894,4.953 v 16.677 h -6.483 v 3.678 H 21.11 V 14.379 C 20.225,14.296 19.207,14.135 18.058,13.898 16.907,13.661 15.729,13.327 14.524,12.895 13.319,12.463 12.135,11.955 10.971,11.369 9.808,10.784 8.769,10.101 7.854,9.321 6.939,8.54 6.199,7.67 5.631,6.709 5.062,5.748 4.778,4.709 4.778,3.595 4.778,2.702 4.897,1.992 5.133,1.463 5.367,0.933 5.637,0.536 5.942,0.272 6.247,0.007 6.56,-0.161 6.877,-0.229 7.197,-0.3 7.425,-0.334 7.564,-0.334 c 0.692,0 1.261,0.118 1.702,0.355 0.444,0.236 0.846,0.487 1.207,0.753 0.359,0.264 0.699,0.515 1.019,0.752 0.317,0.237 0.684,0.355 1.101,0.355 0.332,0 0.684,-0.077 1.06,-0.23 0.373,-0.154 0.719,-0.396 1.037,-0.731 0.319,-0.334 0.589,-0.774 0.81,-1.317 0.222,-0.544 0.334,-1.205 0.334,-1.985 0,-1.115 -0.215,-2.083 -0.645,-2.905 -0.429,-0.823 -0.983,-1.499 -1.663,-2.028 -0.678,-0.529 -1.454,-0.926 -2.327,-1.19 -0.873,-0.266 -1.738,-0.397 -2.596,-0.397 -1.33,0 -2.528,0.229 -3.594,0.689 C 3.94,-7.753 3.034,-7.12 2.285,-6.311 1.537,-5.503 0.969,-4.563 0.583,-3.489 0.193,-2.417 0,-1.254 0,0"
       style="fill:#000000;fill-opacity:1;fill-rule:nonzero;stroke:none"
       transform="matrix(1.1730398,0,0,-1.4286235,405.4089,229.5955)"
       clip-path="url(#clipPath11)" />
    <path
       id="path12"
       d="m 0,0 c 0,-0.362 -0.056,-0.794 -0.166,-1.295 -0.11,-0.502 -0.382,-0.976 -0.811,-1.422 -0.429,-0.446 -1.072,-0.829 -1.931,-1.149 -0.86,-0.32 -2.024,-0.481 -3.492,-0.481 -1.468,0 -2.624,0.174 -3.47,0.523 -0.844,0.348 -1.483,0.759 -1.91,1.233 -0.431,0.474 -0.701,0.961 -0.811,1.463 -0.112,0.502 -0.166,0.905 -0.166,1.212 v 29.551 c 0,0.39 -0.056,0.787 -0.168,1.192 -0.11,0.403 -0.276,0.772 -0.497,1.107 -0.222,0.334 -0.498,0.606 -0.832,0.815 -0.332,0.209 -0.72,0.313 -1.164,0.313 -0.748,0 -1.482,-0.215 -2.202,-0.648 -0.72,-0.432 -1.392,-0.926 -2.016,-1.484 -0.622,-0.556 -1.163,-1.114 -1.62,-1.671 -0.458,-0.558 -0.784,-0.976 -0.976,-1.254 V 0 c 0,-0.362 -0.056,-0.794 -0.166,-1.295 -0.112,-0.502 -0.382,-0.976 -0.811,-1.422 -0.43,-0.446 -1.066,-0.829 -1.912,-1.149 -0.845,-0.32 -2.002,-0.481 -3.47,-0.481 -1.468,0 -2.626,0.174 -3.47,0.523 -0.846,0.348 -1.489,0.759 -1.933,1.233 -0.444,0.474 -0.719,0.961 -0.831,1.463 -0.11,0.502 -0.166,0.905 -0.166,1.212 v 32.268 c 0,0.808 -0.187,1.511 -0.56,2.11 -0.376,0.6 -1.006,0.899 -1.892,0.899 -0.47,0 -0.873,-0.084 -1.205,-0.251 -0.331,-0.166 -0.692,-0.404 -1.08,-0.71 l -0.873,1.045 c 0.636,0.529 1.35,1.052 2.14,1.567 0.79,0.516 1.643,0.969 2.555,1.359 0.915,0.39 1.898,0.711 2.951,0.961 1.054,0.251 2.161,0.376 3.325,0.376 1.8,0 3.2,-0.299 4.197,-0.898 0.998,-0.6 1.732,-1.317 2.203,-2.152 0.471,-0.836 0.755,-1.708 0.852,-2.614 0.096,-0.905 0.146,-1.665 0.146,-2.277 1.302,1.477 2.7,2.8 4.197,3.971 0.608,0.502 1.282,0.988 2.016,1.463 0.732,0.473 1.489,0.898 2.265,1.274 0.775,0.377 1.578,0.675 2.41,0.899 0.831,0.222 1.661,0.334 2.492,0.334 1.608,0 2.979,-0.292 4.115,-0.877 1.137,-0.586 2.049,-1.29 2.742,-2.111 0.693,-0.822 1.199,-1.686 1.518,-2.592 C -0.16,33.222 0,32.436 0,31.767 c 1.331,1.477 2.729,2.8 4.198,3.971 0.609,0.502 1.273,0.988 1.995,1.463 0.719,0.473 1.474,0.898 2.264,1.274 0.791,0.377 1.593,0.675 2.41,0.899 0.817,0.222 1.643,0.334 2.475,0.334 1.605,0 2.976,-0.299 4.112,-0.898 1.137,-0.6 2.051,-1.387 2.744,-2.362 0.693,-0.976 1.199,-2.076 1.516,-3.302 0.319,-1.226 0.479,-2.452 0.479,-3.678 V 3.595 c 0,-0.251 0.012,-0.522 0.042,-0.815 0.026,-0.293 0.095,-0.571 0.207,-0.837 0.11,-0.264 0.284,-0.48 0.518,-0.647 0.237,-0.168 0.548,-0.251 0.936,-0.251 0.527,0 0.997,0.188 1.414,0.564 0.415,0.377 0.803,0.759 1.164,1.15 l 0.997,-0.878 c -0.39,-0.585 -0.902,-1.233 -1.539,-1.943 -0.636,-0.712 -1.391,-1.387 -2.264,-2.027 -0.874,-0.642 -1.886,-1.178 -3.035,-1.61 -1.149,-0.431 -2.445,-0.648 -3.884,-0.648 -1.219,0 -2.279,0.161 -3.179,0.481 -0.902,0.32 -1.664,0.752 -2.286,1.295 -0.624,0.544 -1.089,1.185 -1.393,1.923 C 9.586,0.09 9.434,0.878 9.434,1.714 v 27.921 c 0,0.39 -0.056,0.787 -0.166,1.192 C 9.156,31.23 8.999,31.599 8.789,31.934 8.582,32.268 8.312,32.54 7.98,32.749 7.647,32.958 7.259,33.062 6.817,33.062 6.068,33.062 5.326,32.847 4.594,32.414 3.857,31.982 3.179,31.488 2.557,30.93 1.933,30.374 1.4,29.816 0.956,29.259 0.512,28.701 0.195,28.283 0,28.005 Z"
       style="fill:#000000;fill-opacity:1;fill-rule:nonzero;stroke:none"
       transform="matrix(1.1730398,0,0,-1.4286235,522.11252,287.69719)"
       clip-path="url(#clipPath13)" />
    <path
       id="path14"
       d="m 0,0 c 0,-0.223 0.097,-0.613 0.29,-1.17 0.193,-0.558 0.5,-1.129 0.915,-1.714 0.415,-0.585 0.948,-1.107 1.599,-1.567 0.651,-0.46 1.448,-0.69 2.391,-0.69 1.218,0 2.257,0.466 3.117,1.401 0.857,0.933 1.564,2.2 2.118,3.803 0.556,1.602 0.956,3.469 1.207,5.601 0.249,2.132 0.373,4.41 0.373,6.834 0,2.982 -0.16,5.504 -0.477,7.565 -0.319,2.063 -0.784,3.727 -1.394,4.995 -0.609,1.268 -1.335,2.188 -2.181,2.76 -0.844,0.57 -1.794,0.856 -2.846,0.856 C 4.503,28.674 3.893,28.5 3.283,28.151 2.673,27.803 2.126,27.372 1.64,26.856 1.157,26.34 0.761,25.762 0.456,25.121 0.151,24.48 0,23.868 0,23.282 Z m -12.759,26.626 c 0,0.808 -0.186,1.511 -0.56,2.11 -0.375,0.6 -1.006,0.899 -1.891,0.899 -0.471,0 -0.873,-0.084 -1.205,-0.251 -0.332,-0.167 -0.693,-0.404 -1.081,-0.71 l -0.873,1.045 c 0.637,0.529 1.35,1.052 2.141,1.567 0.79,0.516 1.642,0.969 2.555,1.359 0.914,0.389 1.897,0.711 2.951,0.961 1.053,0.251 2.161,0.376 3.324,0.376 1.247,0 2.313,-0.195 3.2,-0.585 0.886,-0.391 1.628,-0.856 2.224,-1.399 0.595,-0.544 1.045,-1.116 1.35,-1.715 0.305,-0.599 0.485,-1.107 0.541,-1.525 0.554,0.78 1.211,1.49 1.974,2.131 0.762,0.641 1.593,1.191 2.493,1.652 0.9,0.459 1.856,0.815 2.869,1.065 1.01,0.251 2.055,0.376 3.135,0.376 2.217,0 4.225,-0.459 6.027,-1.379 1.8,-0.92 3.345,-2.285 4.633,-4.096 1.288,-1.811 2.28,-4.054 2.972,-6.73 0.693,-2.675 1.039,-5.767 1.039,-9.279 0,-4.069 -0.423,-7.531 -1.267,-10.387 -0.846,-2.857 -1.954,-5.19 -3.324,-7.001 -1.373,-1.812 -2.937,-3.129 -4.698,-3.95 -1.759,-0.821 -3.553,-1.233 -5.382,-1.233 -1.522,0 -2.86,0.153 -4.009,0.459 -1.151,0.307 -2.14,0.684 -2.972,1.13 C 2.576,-8.04 1.883,-7.586 1.329,-7.126 0.776,-6.667 0.332,-6.284 0,-5.977 v -20.397 c 0,-0.362 -0.056,-0.794 -0.166,-1.296 -0.112,-0.502 -0.382,-0.982 -0.811,-1.442 -0.429,-0.46 -1.066,-0.857 -1.912,-1.191 -0.844,-0.335 -2.001,-0.502 -3.47,-0.502 -1.468,0 -2.625,0.174 -3.469,0.523 -0.846,0.348 -1.489,0.766 -1.933,1.253 -0.444,0.489 -0.72,0.976 -0.832,1.463 -0.11,0.488 -0.166,0.885 -0.166,1.192 z"
       style="fill:#000000;fill-opacity:1;fill-rule:nonzero;stroke:none"
       transform="matrix(1.1730398,0,0,-1.4286235,576.51706,279.51675)"
       clip-path="url(#clipPath15)" />
    <path
       id="path16"
       d="M 0,0 C 0,0.696 -0.222,1.226 -0.666,1.589 -1.11,1.949 -1.676,2.132 -2.368,2.132 -3.339,2.132 -4.26,1.908 -5.133,1.463 -6.006,1.016 -6.773,0.362 -7.439,-0.502 -8.105,-1.366 -8.63,-2.432 -9.017,-3.7 -9.407,-4.968 -9.6,-6.437 -9.6,-8.109 c 0,-1.617 0.118,-2.954 0.352,-4.013 0.237,-1.059 0.556,-1.902 0.956,-2.528 0.403,-0.628 0.867,-1.066 1.394,-1.317 0.525,-0.251 1.081,-0.377 1.661,-0.377 0.72,0 1.4,0.189 2.037,0.565 0.637,0.376 1.19,0.857 1.663,1.442 0.471,0.585 0.844,1.239 1.122,1.964 0.276,0.725 0.415,1.449 0.415,2.174 z m -6.608,18.308 c -0.941,0 -1.814,-0.112 -2.619,-0.335 -0.802,-0.223 -1.495,-0.501 -2.076,-0.836 -0.583,-0.334 -1.039,-0.704 -1.373,-1.108 -0.332,-0.404 -0.498,-0.787 -0.498,-1.149 0,-0.417 0.214,-0.718 0.643,-0.899 0.43,-0.181 0.909,-0.391 1.436,-0.627 0.524,-0.236 1.003,-0.571 1.433,-1.003 0.429,-0.432 0.645,-1.094 0.645,-1.986 0,-0.584 -0.119,-1.122 -0.355,-1.609 -0.234,-0.487 -0.554,-0.919 -0.956,-1.295 -0.4,-0.376 -0.871,-0.669 -1.412,-0.878 -0.54,-0.209 -1.102,-0.314 -1.682,-0.314 -1.554,0 -2.806,0.529 -3.763,1.589 -0.956,1.059 -1.433,2.466 -1.433,4.222 0,1.699 0.442,3.155 1.33,4.367 0.885,1.212 2.043,2.209 3.469,2.989 1.427,0.78 3.041,1.358 4.843,1.735 1.8,0.376 3.6,0.564 5.403,0.564 2.161,0 4.224,-0.237 6.19,-0.711 1.968,-0.473 3.706,-1.226 5.216,-2.257 1.51,-1.031 2.715,-2.34 3.615,-3.929 0.9,-1.588 1.352,-3.511 1.352,-5.768 v -23.616 c 0,-0.25 0.013,-0.529 0.042,-0.836 0.027,-0.307 0.095,-0.585 0.207,-0.836 0.11,-0.251 0.276,-0.459 0.498,-0.627 0.222,-0.167 0.541,-0.25 0.956,-0.25 0.5,0 0.962,0.187 1.392,0.564 0.429,0.376 0.81,0.759 1.144,1.149 l 1.037,-0.878 c -0.414,-0.585 -0.912,-1.226 -1.495,-1.922 -0.581,-0.697 -1.288,-1.352 -2.12,-1.965 -0.831,-0.613 -1.8,-1.128 -2.907,-1.546 -1.11,-0.418 -2.371,-0.628 -3.783,-0.628 -1.746,0 -3.298,0.523 -4.654,1.568 -1.358,1.045 -2.244,2.654 -2.661,4.827 -0.885,-1.197 -1.806,-2.201 -2.762,-3.009 -0.956,-0.809 -1.933,-1.463 -2.931,-1.964 -0.997,-0.502 -2.001,-0.864 -3.013,-1.087 -1.01,-0.223 -2.028,-0.335 -3.053,-0.335 -1.331,0 -2.619,0.21 -3.866,0.628 -1.246,0.418 -2.362,1.079 -3.345,1.985 -0.983,0.905 -1.773,2.083 -2.368,3.531 -0.598,1.449 -0.894,3.219 -0.894,5.31 0,2.535 0.498,4.611 1.495,6.228 0.998,1.615 2.306,2.974 3.928,4.075 1.62,1.1 3.464,2.041 5.527,2.82 2.064,0.78 4.177,1.603 6.338,2.467 1.605,0.64 2.777,1.595 3.511,2.863 0.734,1.268 1.101,2.571 1.101,3.909 0,2.061 -0.603,3.712 -1.808,4.952 -1.205,1.24 -2.845,1.861 -4.924,1.861"
       style="fill:#000000;fill-opacity:1;fill-rule:nonzero;stroke:none"
       transform="matrix(1.1730398,0,0,-1.4286235,637.11077,262.01954)"
       clip-path="url(#clipPath17)" />
    <path
       id="path18"
       d="m 0,0 v -30.889 c 0,-1.478 0.276,-2.502 0.832,-3.073 0.553,-0.571 1.315,-0.856 2.285,-0.856 0.749,0 1.412,0.208 1.995,0.626 0.581,0.418 1.081,0.892 1.496,1.422 0.499,0.585 0.929,1.267 1.287,2.048 l 1.29,-0.585 c -0.416,-0.893 -0.908,-1.867 -1.476,-2.926 -0.568,-1.06 -1.323,-2.042 -2.265,-2.947 -0.941,-0.906 -2.126,-1.666 -3.553,-2.278 -1.426,-0.612 -3.22,-0.919 -5.381,-0.919 -1.22,0 -2.39,0.181 -3.512,0.543 -1.122,0.362 -2.119,0.933 -2.992,1.713 -0.873,0.78 -1.572,1.756 -2.099,2.927 -0.527,1.17 -0.79,2.576 -0.79,4.221 V 0 h -4.654 v 3.009 c 0.776,0 1.856,0.201 3.241,0.606 1.386,0.404 2.806,1.079 4.26,2.027 1.454,0.948 2.804,2.216 4.053,3.804 1.246,1.588 2.132,3.553 2.659,5.894 H 0 V 3.009 h 6.773 c 2.217,0 3.325,0.377 3.325,1.128 0,0.279 -0.139,0.467 -0.415,0.565 C 9.405,4.799 9.094,4.925 8.748,5.078 8.401,5.231 8.09,5.447 7.812,5.726 7.537,6.004 7.398,6.464 7.398,7.105 c 0,0.78 0.242,1.394 0.728,1.84 0.483,0.445 1.113,0.669 1.889,0.669 0.5,0 0.935,-0.105 1.311,-0.315 C 11.699,9.091 12.01,8.812 12.259,8.464 12.51,8.115 12.697,7.718 12.821,7.272 12.945,6.826 13.008,6.38 13.008,5.935 13.008,4.123 12.489,2.682 11.45,1.609 10.411,0.536 8.742,0 6.442,0 Z"
       style="fill:#000000;fill-opacity:1;fill-rule:nonzero;stroke:none"
       transform="matrix(1.1730398,0,0,-1.4286235,680.6918,236.10346)"
       clip-path="url(#clipPath19)" />
    <path
       id="path20"
       d="m 0,0 c 1.025,1.477 2.188,2.8 3.49,3.971 0.525,0.501 1.114,0.988 1.765,1.463 0.652,0.473 1.344,0.898 2.078,1.274 0.735,0.377 1.51,0.675 2.327,0.899 0.817,0.222 1.655,0.334 2.516,0.334 1.856,0 3.517,-0.362 4.986,-1.087 1.468,-0.725 2.702,-1.937 3.7,-3.636 0.997,-1.7 1.758,-3.95 2.285,-6.75 0.525,-2.801 0.788,-6.278 0.788,-10.429 0,-4.041 -0.359,-7.552 -1.078,-10.533 -0.722,-2.982 -1.664,-5.518 -2.827,-7.607 -1.164,-2.091 -2.48,-3.797 -3.949,-5.121 -1.468,-1.323 -2.949,-2.362 -4.446,-3.114 -1.496,-0.753 -2.937,-1.274 -4.322,-1.568 -1.386,-0.292 -2.576,-0.452 -3.574,-0.48 l -0.415,1.713 c 1.247,0.307 2.354,0.879 3.325,1.714 0.968,0.836 1.786,2.209 2.451,4.117 0.664,1.909 1.17,4.48 1.516,7.712 0.347,3.232 0.521,7.399 0.521,12.499 0,3.511 -0.16,6.317 -0.479,8.422 -0.317,2.103 -0.734,3.705 -1.247,4.806 C 8.899,-0.301 8.316,0.424 7.667,0.773 7.016,1.121 6.357,1.295 5.693,1.295 4.888,1.295 4.183,1.079 3.573,0.647 2.964,0.215 2.431,-0.279 1.972,-0.837 1.516,-1.394 1.128,-1.952 0.809,-2.508 0.492,-3.066 0.22,-3.484 0,-3.762 v -27.921 c 0,-0.363 -0.056,-0.802 -0.168,-1.317 -0.11,-0.517 -0.38,-1.003 -0.809,-1.463 -0.431,-0.46 -1.068,-0.851 -1.912,-1.17 -0.846,-0.321 -2.001,-0.481 -3.47,-0.481 -1.47,0 -2.634,0.174 -3.49,0.522 -0.861,0.349 -1.504,0.759 -1.933,1.233 -0.431,0.474 -0.701,0.962 -0.811,1.463 -0.112,0.502 -0.166,0.906 -0.166,1.213 v 53.92 c 0,0.807 -0.186,1.51 -0.562,2.11 -0.373,0.599 -1.004,0.899 -1.889,0.899 -0.473,0 -0.882,-0.077 -1.228,-0.23 -0.346,-0.154 -0.713,-0.384 -1.101,-0.69 l -0.83,1.004 c 0.637,0.529 1.342,1.051 2.12,1.567 0.773,0.515 1.626,0.967 2.555,1.358 0.927,0.39 1.918,0.71 2.972,0.961 1.051,0.251 2.161,0.377 3.324,0.377 1.8,0 3.2,-0.245 4.198,-0.731 0.997,-0.489 1.73,-1.087 2.202,-1.798 0.471,-0.711 0.753,-1.462 0.851,-2.257 C -0.05,24.013 0,23.309 0,22.696 Z"
       style="fill:#000000;fill-opacity:1;fill-rule:nonzero;stroke:none"
       transform="matrix(1.1730398,0,0,-1.4286235,713.59778,242.31368)"
       clip-path="url(#clipPath21)" />
    <path
       id="path22"
       d="m 0,0 c 0,-5.1 -0.492,-10.025 -1.475,-14.776 -0.985,-4.751 -2.341,-9.21 -4.073,-13.375 -1.731,-4.167 -3.789,-7.971 -6.172,-11.411 -2.383,-3.442 -4.973,-6.388 -7.771,-8.84 -2.797,-2.453 -5.755,-4.362 -8.872,-5.727 -3.117,-1.365 -6.267,-2.048 -9.455,-2.048 -2.437,0 -4.322,0.411 -5.651,1.233 -1.33,0.822 -1.996,1.929 -1.996,3.323 0,0.53 0.085,1.045 0.251,1.546 0.166,0.502 0.388,0.948 0.664,1.338 0.278,0.391 0.61,0.704 0.998,0.94 0.387,0.238 0.804,0.356 1.246,0.356 0.527,0 0.964,-0.264 1.311,-0.794 0.346,-0.529 0.713,-1.108 1.101,-1.735 0.388,-0.628 0.859,-1.205 1.412,-1.735 0.554,-0.529 1.315,-0.794 2.286,-0.794 1.246,0 2.549,0.216 3.907,0.648 1.356,0.432 2.721,1.052 4.092,1.86 1.373,0.809 2.744,1.791 4.115,2.947 1.37,1.156 2.723,2.445 4.052,3.866 -0.776,2.815 -1.669,5.887 -2.682,9.216 -1.01,3.33 -2.078,6.682 -3.2,10.053 -1.122,3.371 -2.271,6.625 -3.449,9.76 -1.178,3.134 -2.326,5.914 -3.448,8.339 -1.122,2.424 -2.203,4.368 -3.242,5.831 -1.039,1.463 -1.96,2.194 -2.762,2.194 -0.527,0 -0.936,-0.084 -1.228,-0.251 -0.291,-0.167 -0.629,-0.404 -1.019,-0.71 l -0.829,1.045 c 0.554,0.473 1.136,0.961 1.744,1.463 0.61,0.501 1.332,0.961 2.161,1.379 0.832,0.418 1.802,0.759 2.91,1.024 1.107,0.264 2.437,0.397 3.99,0.397 1.688,0 3.262,-0.384 4.716,-1.149 1.454,-0.767 2.777,-2.181 3.97,-4.243 0.858,-1.533 1.75,-3.371 2.679,-5.517 0.927,-2.146 1.862,-4.543 2.806,-7.189 0.942,-2.649 1.89,-5.512 2.846,-8.59 0.956,-3.079 1.918,-6.305 2.889,-9.676 1.717,3.622 3.102,7.461 4.156,11.515 1.051,4.055 1.578,8.227 1.578,12.518 0,1.533 -0.098,2.843 -0.29,3.929 -0.195,1.087 -0.415,2.013 -0.666,2.781 -0.249,0.765 -0.471,1.42 -0.664,1.964 -0.195,0.543 -0.292,1.024 -0.292,1.442 0,0.418 0.168,0.774 0.5,1.066 0.331,0.292 0.734,0.523 1.205,0.69 0.47,0.166 0.947,0.285 1.433,0.354 0.485,0.07 0.893,0.105 1.225,0.105 0.749,0 1.324,-0.154 1.726,-0.459 0.4,-0.307 0.699,-0.746 0.894,-1.317 C -0.18,4.214 -0.068,3.525 -0.042,2.717 -0.015,1.908 0,1.003 0,0"
       style="fill:#000000;fill-opacity:1;fill-rule:nonzero;stroke:none"
       transform="matrix(1.1730398,0,0,-1.4286235,790.62005,240.34332)"
       clip-path="url(#clipPath23)" />
    <path
       id="path24"
       d="m 0,0 c -2.966,-15.171 -13.859,-31.784 -31.507,-48.028 -6.607,-6.089 -15.329,-12.399 -25.917,-18.775 -5.738,-3.455 -12.169,-5.174 -18.6,-5.174 -6.431,0 -12.861,1.719 -18.599,5.174 -6.163,3.715 -11.772,7.457 -16.669,11.134 -3.058,2.301 -3.677,6.644 -1.385,9.702 2.3,3.058 6.643,3.677 9.71,1.377 4.519,-3.391 9.73,-6.875 15.486,-10.34 7.068,-4.25 15.846,-4.25 22.905,0 9.656,5.812 17.842,11.725 23.681,17.094 15.236,14.035 24.929,28.412 27.285,40.488 4.075,20.891 -5.026,36.478 -23.755,40.682 -17.057,3.825 -33.457,-13.203 -33.623,-13.379 -0.046,-0.046 -0.102,-0.092 -0.148,-0.139 -0.055,-0.055 -0.102,-0.111 -0.157,-0.166 -0.037,-0.028 -0.758,-0.711 -1.968,-1.94 -2.366,-2.412 -6.616,-6.948 -11.162,-12.834 -0.009,-0.019 -0.018,-0.028 -0.018,-0.028 -4.491,-5.802 -9.277,-12.926 -12.853,-20.604 -1.173,-2.523 -3.677,-4.01 -6.282,-4.01 -0.98,0 -1.978,0.212 -2.92,0.647 -3.474,1.616 -4.98,5.737 -3.363,9.211 9.831,21.122 27.016,37.707 28.947,39.537 0.398,0.416 1.414,1.441 2.957,2.809 6.847,6.061 24.051,18.821 43.62,14.423 4.593,-1.035 8.834,-2.587 12.677,-4.629 C -14.996,48.684 -9.545,43.676 -5.59,37.384 0.841,27.155 2.772,14.22 0,0"
       style="fill:#35a866;fill-opacity:1;fill-rule:nonzero;stroke:none"
       transform="matrix(1.075674,0,0,-1.100551,174.95689,247.29768)"
       clip-path="url(#clipPath25)" />
    <path
       id="path26"
       d="m 0,0 c -13.305,-35.822 -41.236,-48.48 -63.772,-48.48 -0.748,0 -1.478,0.018 -2.217,0.046 -5.748,0.212 -11.245,1.192 -16.373,2.855 -11.993,3.871 -22.009,11.448 -28.569,21.648 h -0.009 c -2.671,4.149 -4.768,8.723 -6.2,13.666 -0.065,0.203 -0.111,0.416 -0.157,0.637 -0.009,0.019 -0.009,0.046 -0.009,0.065 -0.01,0.018 -0.01,0.046 -0.019,0.065 -2.735,14.173 -0.795,27.053 5.618,37.254 6.227,9.914 16.169,16.65 28.735,19.477 7.844,1.756 16.096,0.942 24.55,-2.43 3.548,-1.423 5.285,-5.451 3.862,-9.009 -1.414,-3.548 -5.451,-5.285 -9,-3.862 -5.802,2.31 -11.309,2.911 -16.372,1.774 -18.636,-4.185 -27.738,-19.643 -23.82,-40.377 4.851,-16.28 19.838,-27.229 38.28,-27.913 1.968,-0.074 3.881,-0.028 5.738,0.111 13.656,1.035 24.596,7.567 32.764,16.345 6.338,6.8 11.004,14.959 13.97,22.951 1.34,3.594 5.322,5.424 8.916,4.084 C -0.499,7.576 1.331,3.585 0,0"
       style="fill:#35a866;fill-opacity:1;fill-rule:nonzero;stroke:none"
       transform="matrix(1.075674,0,0,-1.100551,137.5768,236.7018)"
       clip-path="url(#clipPath27)" />
    <path
       id="path28"
       d="m 0,0 c -2.966,-15.171 -13.859,-31.784 -31.507,-48.028 -6.607,-6.089 -15.329,-12.399 -25.917,-18.775 -5.738,-3.455 -12.169,-5.174 -18.6,-5.174 -6.431,0 -12.861,1.719 -18.599,5.174 -3.253,1.959 -6.348,3.927 -9.268,5.895 -2.614,1.747 -5.091,3.502 -7.401,5.239 -3.058,2.301 -3.677,6.644 -1.385,9.702 2.3,3.058 6.643,3.677 9.71,1.377 4.519,-3.391 9.73,-6.875 15.486,-10.34 4.555,-2.735 9.822,-3.714 14.885,-2.919 h 0.009 c 2.772,0.434 5.489,1.404 7.983,2.901 0.019,0.009 0.028,0.018 0.028,0.018 9.656,5.812 17.842,11.725 23.681,17.094 15.236,14.035 24.929,28.412 27.285,40.488 4.075,20.891 -5.026,36.478 -23.755,40.682 -17.057,3.825 -33.457,-13.203 -33.623,-13.379 -0.046,-0.046 -0.102,-0.092 -0.148,-0.139 -0.055,-0.055 -0.102,-0.111 -0.157,-0.166 -0.102,-0.092 -6.274,-5.904 -13.13,-14.774 0.629,1.238 22.813,43.703 62.728,37.365 0.01,0 0.028,0 0.037,-0.009 C -14.996,48.684 -9.545,43.676 -5.59,37.384 0.841,27.155 2.772,14.22 0,0"
       style="fill:#3fd08f;fill-opacity:1;fill-rule:nonzero;stroke:none"
       transform="matrix(1.075674,0,0,-1.100551,174.95689,247.29768)"
       clip-path="url(#clipPath29)" />
    <path
       id="path30"
       d="m 0,0 h -0.009 c -2.67,4.149 -4.768,8.722 -6.2,13.665 -0.065,0.204 -0.111,0.416 -0.157,0.638 -0.009,0.018 -0.009,0.046 -0.009,0.065 -0.009,0.018 -0.009,0.046 -0.019,0.064 -2.735,14.174 -0.794,27.054 5.618,37.255 6.227,9.914 16.169,16.649 28.735,19.477 7.845,1.755 16.096,0.942 24.55,-2.43 3.548,-1.423 5.285,-5.452 3.862,-9.009 -1.414,-3.548 -5.451,-5.285 -8.999,-3.862 -5.803,2.31 -11.31,2.91 -16.373,1.774 C 12.363,53.451 3.262,37.993 7.179,17.26 12.03,0.979 27.017,-9.97 45.459,-10.653 c 1.968,-0.074 3.881,-0.028 5.738,0.111 13.656,1.034 24.596,7.567 32.764,16.344 C 83.961,5.802 48.055,-38.215 0,0"
       style="fill:#3fd08f;fill-opacity:1;fill-rule:nonzero;stroke:none"
       transform="matrix(1.075674,0,0,-1.100551,18.251093,263.03864)"
       clip-path="url(#clipPath31)" />
    <path
       id="path32"
       d="m 0,0 c -1.044,-0.268 -23.829,-6.043 -38.696,2.181 -3.058,2.3 -3.677,6.643 -1.386,9.701 2.301,3.059 6.644,3.678 9.711,1.377 4.518,-3.391 9.73,-6.874 15.486,-10.339 C -10.33,0.185 -5.063,-0.795 0,0"
       style="fill:#35a866;fill-opacity:1;fill-rule:nonzero;stroke:none"
       transform="matrix(1.075674,0,0,-1.100551,96.867374,310.96379)"
       clip-path="url(#clipPath33)" />
  </g>
</svg>
