<?xml version="1.0" encoding="UTF-8"?>
<!-- Created with Inkscape (http://www.inkscape.org/) -->
<svg width="800" height="533.33" version="1.1" viewBox="0 0 800 533.33" xmlns="http://www.w3.org/2000/svg">
 <defs>
  <clipPath id="clipPath3">
   <path transform="translate(-78.062 -105.89)" d="m0 400h600v-400h-600z"/>
  </clipPath>
  <clipPath id="clipPath5">
   <path transform="translate(-134.16 -126.12)" d="m0 400h600v-400h-600z"/>
  </clipPath>
  <clipPath id="clipPath7">
   <path transform="translate(-167.83 -138.49)" d="m0 400h600v-400h-600z"/>
  </clipPath>
  <clipPath id="clipPath9">
   <path transform="translate(-199.37 -138.24)" d="m0 400h600v-400h-600z"/>
  </clipPath>
  <clipPath id="clipPath11">
   <path transform="translate(-228.54 -142.8)" d="m0 400h600v-400h-600z"/>
  </clipPath>
  <clipPath id="clipPath13">
   <path transform="translate(-328.03 -102.13)" d="m0 400h600v-400h-600z"/>
  </clipPath>
  <clipPath id="clipPath15">
   <path transform="translate(-374.41 -107.85)" d="m0 400h600v-400h-600z"/>
  </clipPath>
  <clipPath id="clipPath17">
   <path transform="translate(-426.06 -120.1)" d="m0 400h600v-400h-600z"/>
  </clipPath>
  <clipPath id="clipPath19">
   <path transform="translate(-463.22 -138.24)" d="m0 400h600v-400h-600z"/>
  </clipPath>
  <clipPath id="clipPath21">
   <path transform="translate(-491.27 -133.89)" d="m0 400h600v-400h-600z"/>
  </clipPath>
  <clipPath id="clipPath23">
   <path transform="translate(-556.93 -135.27)" d="m0 400h600v-400h-600z"/>
  </clipPath>
  <clipPath id="clipPath25">
   <path transform="translate(-376.02 -265.19)" d="m0 400h600v-400h-600z"/>
  </clipPath>
  <clipPath id="clipPath27">
   <path transform="translate(-341.27 -274.82)" d="m0 400h600v-400h-600z"/>
  </clipPath>
  <clipPath id="clipPath29">
   <path transform="translate(-376.02 -265.19)" d="m0 400h600v-400h-600z"/>
  </clipPath>
  <clipPath id="clipPath31">
   <path transform="translate(-230.34 -250.89)" d="m0 400h600v-400h-600z"/>
  </clipPath>
  <clipPath id="clipPath33">
   <path transform="translate(-303.43 -207.34)" d="m0 400h600v-400h-600z"/>
  </clipPath>
 </defs>
 <g>
  <g>
   <path transform="matrix(1.173 0 0 -1.4286 228.89 282.32)" d="m0 0c0-0.642 0.062-1.247 0.187-1.819 0.124-0.571 0.375-1.065 0.748-1.483 0.374-0.419 0.886-0.753 1.537-1.003 0.651-0.251 1.504-0.377 2.557-0.377 1.523 0 2.922 0.44 4.198 1.317 1.273 0.878 2.368 2.007 3.283 3.386 0.912 1.379 1.62 2.926 2.119 4.639 0.498 1.714 0.747 3.421 0.747 5.121 0 2.535-0.34 4.772-1.018 6.709-0.678 1.936-1.628 3.573-2.846 4.911-1.219 1.337-2.66 2.375-4.322 3.114-1.663 0.738-3.463 1.163-5.402 1.274l0.829 2.132c1.22-0.056 2.383 0.111 3.493 0.502 1.107 0.39 2.084 1.072 2.928 2.048 0.846 0.975 1.518 2.292 2.016 3.95 0.5 1.657 0.749 3.741 0.749 6.249 0 1.699-0.208 3.232-0.625 4.598-0.414 1.364-0.962 2.514-1.64 3.447-0.68 0.934-1.468 1.652-2.368 2.153-0.903 0.502-1.823 0.753-2.765 0.753-0.581 0-1.143-0.071-1.682-0.209-0.541-0.139-1.012-0.376-1.414-0.711-0.403-0.334-0.72-0.773-0.956-1.317-0.235-0.543-0.353-1.219-0.353-2.027zm0.832 55.048c8.034 0 13.943-1.261 17.723-3.783 3.783-2.522 5.673-6.192 5.673-11.013 0-1.199-0.131-2.299-0.394-3.302-0.264-1.004-0.604-1.916-1.019-2.739-0.415-0.822-0.887-1.553-1.412-2.194-0.527-0.641-1.068-1.199-1.622-1.671-1.302-1.143-2.771-2.035-4.405-2.676v-0.627c2.578-0.307 4.89-1.087 6.941-2.341 0.857-0.529 1.703-1.191 2.535-1.984 0.831-0.795 1.572-1.756 2.223-2.885 0.651-1.128 1.178-2.438 1.578-3.929 0.403-1.491 0.604-3.197 0.604-5.121 0-2.925-0.527-5.559-1.581-7.899-1.051-2.341-2.617-4.326-4.695-5.957-2.078-1.63-4.668-2.877-7.771-3.74-3.102-0.864-6.705-1.296-10.805-1.296-3.795 0-6.885 0.237-9.266 0.71-2.383 0.474-4.239 1.164-5.569 2.07-1.331 0.905-2.238 1.998-2.723 3.281-0.485 1.281-0.728 2.73-0.728 4.347v45.727c0 1.532-1.051 2.299-3.158 2.299-1.523 0-3.068-0.229-4.634-0.69-1.565-0.459-2.978-1.087-4.239-1.881s-2.291-1.741-3.096-2.842c-0.803-1.101-1.205-2.292-1.205-3.574 0-0.891 0.118-1.603 0.355-2.132 0.234-0.529 0.504-0.926 0.809-1.191 0.304-0.264 0.618-0.431 0.935-0.501 0.319-0.07 0.547-0.105 0.686-0.105 0.693 0 1.261 0.119 1.703 0.356 0.444 0.237 0.846 0.486 1.207 0.752 0.359 0.264 0.699 0.515 1.018 0.753 0.318 0.236 0.685 0.354 1.102 0.354 0.331 0 0.684-0.076 1.059-0.229 0.374-0.153 0.72-0.397 1.037-0.732 0.32-0.334 0.589-0.772 0.811-1.316 0.222-0.543 0.334-1.206 0.334-1.986 0-1.114-0.216-2.076-0.645-2.883-0.429-0.809-0.983-1.484-1.663-2.028-0.678-0.543-1.454-0.947-2.327-1.212s-1.738-0.397-2.597-0.397c-1.329 0-2.528 0.229-3.594 0.69-1.068 0.459-1.974 1.093-2.723 1.901-0.748 0.808-1.317 1.756-1.702 2.843-0.39 1.086-0.583 2.243-0.583 3.468 0 2.314 0.429 4.355 1.288 6.125 0.858 1.769 2.072 3.294 3.637 4.576 1.564 1.281 3.441 2.347 5.631 3.198 2.188 0.849 4.612 1.525 7.271 2.027 2.661 0.502 5.506 0.856 8.541 1.066 3.034 0.208 6.184 0.313 9.455 0.313" clip-path="url(#clipPath3)"/>
   <path transform="matrix(1.173 0 0 -1.4286 294.7 253.42)" d="m0 0c0.361 0.223 0.657 0.439 0.894 0.648 0.234 0.21 0.423 0.459 0.562 0.753 0.137 0.292 0.24 0.654 0.311 1.087 0.068 0.431 0.104 0.967 0.104 1.608 0 0.697-0.077 1.47-0.228 2.321-0.154 0.849-0.409 1.651-0.77 2.402-0.361 0.753-0.817 1.38-1.371 1.881-0.556 0.502-1.219 0.753-1.995 0.753-0.997 0-1.85-0.299-2.555-0.899-0.707-0.599-1.29-1.373-1.746-2.319-0.456-0.948-0.817-2.028-1.081-3.24-0.263-1.212-0.464-2.432-0.603-3.657-0.139-1.227-0.222-2.404-0.249-3.532s-0.042-2.083-0.042-2.863zm-8.352-8.484c0-0.893 0.131-1.861 0.394-2.906 0.264-1.045 0.645-2.097 1.143-3.155 0.498-1.06 1.116-2.069 1.85-3.031s1.578-1.818 2.534-2.57c0.956-0.753 2.016-1.352 3.18-1.798 1.163-0.446 2.437-0.669 3.822-0.669 0.971 0 1.871 0.111 2.702 0.335 0.832 0.223 1.608 0.529 2.327 0.92 0.72 0.39 1.413 0.842 2.078 1.358 0.666 0.516 1.33 1.065 1.995 1.651l1.039-1.004c-0.638-0.864-1.455-1.811-2.451-2.842-0.998-1.031-2.205-1.999-3.617-2.905s-3.061-1.658-4.944-2.257c-1.885-0.598-4.032-0.898-6.442-0.898s-4.759 0.439-7.045 1.316c-2.285 0.878-4.316 2.195-6.087 3.951-1.773 1.755-3.194 3.942-4.26 6.562-1.068 2.619-1.601 5.684-1.601 9.195 0 2.536 0.32 4.863 0.956 6.98 0.637 2.118 1.504 4.027 2.599 5.727 1.093 1.699 2.368 3.19 3.822 4.473 1.454 1.28 2.985 2.346 4.592 3.197 1.607 0.85 3.248 1.49 4.925 1.922 1.676 0.433 3.29 0.648 4.841 0.648 2.051 0 3.837-0.223 5.361-0.669s2.792-1.044 3.804-1.797c1.01-0.753 1.765-1.624 2.264-2.612 0.498-0.989 0.747-2.027 0.747-3.114 0-1.311-0.373-2.487-1.122-3.532-0.747-1.045-1.744-1.959-2.991-2.738z" clip-path="url(#clipPath5)"/>
   <path transform="matrix(1.173 0 0 -1.4286 334.19 235.75)" d="m0 0c-0.637 0-1.24-0.084-1.808-0.251-0.569-0.168-1.075-0.44-1.516-0.815-0.444-0.376-0.791-0.85-1.04-1.422-0.248-0.571-0.373-1.247-0.373-2.027 0-1.087 0.394-2.167 1.184-3.239 0.788-1.073 1.772-2.188 2.949-3.344 1.178-1.157 2.454-2.356 3.825-3.595 1.371-1.24 2.646-2.55 3.822-3.929 1.178-1.379 2.161-2.849 2.951-4.409 0.79-1.562 1.184-3.233 1.184-5.016 0-2.006-0.338-3.79-1.018-5.35-0.678-1.561-1.649-2.884-2.907-3.971-1.261-1.087-2.786-1.916-4.573-2.488-1.786-0.57-3.775-0.856-5.963-0.856-1.912 0-3.644 0.272-5.195 0.815s-2.929 1.212-4.136 2.006c-1.205 0.795-2.235 1.637-3.094 2.53-0.861 0.89-1.524 1.698-1.995 2.423l1.454 1.045c0.361-0.418 0.817-0.871 1.371-1.358 0.553-0.488 1.171-0.941 1.85-1.359 0.678-0.418 1.406-0.759 2.181-1.023 0.776-0.266 1.566-0.397 2.369-0.397 1.995 0 3.629 0.48 4.905 1.441 1.273 0.961 1.91 2.389 1.91 4.285 0 1.059-0.347 2.153-1.037 3.281-0.695 1.128-1.566 2.291-2.62 3.49-1.053 1.198-2.188 2.438-3.407 3.72-1.22 1.281-2.356 2.606-3.408 3.971-1.053 1.365-1.926 2.772-2.619 4.222-0.693 1.448-1.037 2.953-1.037 4.514 0 1.755 0.353 3.288 1.058 4.598 0.707 1.309 1.649 2.396 2.827 3.26s2.522 1.511 4.031 1.943c1.51 0.432 3.068 0.648 4.675 0.648 1.856 0 3.546-0.167 5.071-0.502 1.522-0.334 2.831-0.843 3.926-1.525 1.095-0.683 1.939-1.54 2.536-2.571 0.595-1.03 0.892-2.229 0.892-3.594 0-1.06-0.347-1.979-1.037-2.759-0.695-0.78-1.663-1.17-2.91-1.17-1.192 0-2.099 0.257-2.723 0.773-0.622 0.515-0.935 1.219-0.935 2.111 0 0.585 0.147 1.045 0.437 1.379 0.291 0.335 0.616 0.607 0.977 0.815 0.359 0.21 0.685 0.39 0.977 0.543 0.29 0.154 0.436 0.356 0.436 0.607 0 0.78-0.415 1.4-1.247 1.859-0.832 0.461-1.898 0.691-3.2 0.691" clip-path="url(#clipPath7)"/>
   <path transform="matrix(1.173 0 0 -1.4286 371.19 236.1)" d="m0 0v-30.889c0-1.478 0.276-2.502 0.832-3.073 0.553-0.571 1.315-0.856 2.285-0.856 0.749 0 1.412 0.208 1.995 0.626 0.581 0.418 1.081 0.892 1.496 1.422 0.499 0.585 0.929 1.267 1.287 2.048l1.29-0.585c-0.416-0.893-0.908-1.867-1.476-2.926-0.568-1.06-1.323-2.042-2.265-2.947-0.942-0.906-2.126-1.666-3.553-2.278-1.426-0.612-3.22-0.919-5.381-0.919-1.22 0-2.39 0.181-3.512 0.543s-2.119 0.933-2.992 1.713-1.572 1.756-2.099 2.927c-0.527 1.17-0.79 2.576-0.79 4.221v30.973h-4.654v3.009c0.776 0 1.856 0.201 3.241 0.606 1.386 0.404 2.806 1.079 4.26 2.027s2.804 2.216 4.053 3.804c1.246 1.588 2.132 3.553 2.659 5.894h3.324v-12.331h6.773c2.217 0 3.325 0.377 3.325 1.128 0 0.279-0.139 0.467-0.415 0.565-0.278 0.097-0.589 0.223-0.935 0.376-0.347 0.153-0.658 0.369-0.936 0.648-0.275 0.278-0.414 0.738-0.414 1.379 0 0.78 0.242 1.394 0.728 1.84 0.483 0.445 1.113 0.669 1.889 0.669 0.5 0 0.935-0.105 1.311-0.315 0.373-0.208 0.684-0.487 0.933-0.835 0.251-0.349 0.438-0.746 0.562-1.192s0.187-0.892 0.187-1.337c0-1.812-0.519-3.253-1.558-4.326s-2.708-1.609-5.008-1.609z" clip-path="url(#clipPath9)"/>
   <path transform="matrix(1.173 0 0 -1.4286 405.41 229.6)" d="m0 0c0 3.26 0.894 6.033 2.68 8.318 1.787 2.285 4.232 4.159 7.335 5.622s6.717 2.529 10.847 3.198c4.127 0.669 8.546 1.003 13.256 1.003 2.244 0 4.432-0.021 6.566-0.063s4.08-0.104 5.84-0.188c1.759-0.083 3.275-0.182 4.551-0.293 1.273-0.112 2.202-0.236 2.783-0.376 0.553-0.139 0.997-0.293 1.331-0.46 0.332-0.167 0.581-0.363 0.747-0.584 0.166-0.224 0.278-0.482 0.334-0.774 0.054-0.292 0.083-0.635 0.083-1.024 0-0.334-0.042-0.705-0.125-1.108-0.085-0.404-0.209-0.78-0.375-1.128-0.166-0.349-0.373-0.648-0.622-0.899-0.251-0.251-0.556-0.377-0.915-0.377-0.222 0-0.465 0.098-0.728 0.294-0.263 0.194-0.637 0.445-1.122 0.752s-1.136 0.627-1.954 0.961c-0.817 0.335-1.91 0.654-3.283 0.961-1.37 0.307-3.075 0.558-5.11 0.753-2.036 0.195-4.496 0.292-7.377 0.292v-26.793h17.247v-3.678h-17.247v-16.342c0-1.311 0.193-2.432 0.581-3.365 0.388-0.934 0.942-1.708 1.663-2.32 0.72-0.614 1.587-1.06 2.597-1.338 1.012-0.278 2.14-0.417 3.387-0.417 1.414 0 2.826 0.146 4.239 0.438 1.414 0.293 2.75 0.662 4.011 1.108s2.41 0.946 3.449 1.504c1.039 0.557 1.877 1.101 2.513 1.63l1.622-1.797c-0.693-0.558-1.622-1.317-2.785-2.278-1.164-0.961-2.582-1.902-4.26-2.821-1.676-0.919-3.629-1.721-5.859-2.403-2.229-0.683-4.758-1.025-7.584-1.025-0.942 0-2.016 0.049-3.221 0.147s-2.445 0.292-3.719 0.584c-1.275 0.294-2.528 0.725-3.762 1.297-1.232 0.57-2.327 1.33-3.283 2.278-0.956 0.947-1.731 2.11-2.327 3.49-0.595 1.379-0.894 3.03-0.894 4.953v16.677h-6.483v3.678h6.483v26.292c-0.885-0.083-1.903-0.244-3.052-0.481-1.151-0.237-2.329-0.571-3.534-1.003s-2.389-0.94-3.553-1.526c-1.163-0.585-2.202-1.268-3.117-2.048-0.915-0.781-1.655-1.651-2.223-2.612-0.569-0.961-0.853-2-0.853-3.114 0-0.893 0.119-1.603 0.355-2.132 0.234-0.53 0.504-0.927 0.809-1.191 0.305-0.265 0.618-0.433 0.935-0.501 0.32-0.071 0.548-0.105 0.687-0.105 0.692 0 1.261 0.118 1.702 0.355 0.444 0.236 0.846 0.487 1.207 0.753 0.359 0.264 0.699 0.515 1.019 0.752 0.317 0.237 0.684 0.355 1.101 0.355 0.332 0 0.684-0.077 1.06-0.23 0.373-0.154 0.719-0.396 1.037-0.731 0.319-0.334 0.589-0.774 0.81-1.317 0.222-0.544 0.334-1.205 0.334-1.985 0-1.115-0.215-2.083-0.645-2.905-0.429-0.823-0.983-1.499-1.663-2.028-0.678-0.529-1.454-0.926-2.327-1.19-0.873-0.266-1.738-0.397-2.596-0.397-1.33 0-2.528 0.229-3.594 0.689-1.069 0.46-1.975 1.093-2.724 1.902-0.748 0.808-1.316 1.748-1.702 2.822-0.39 1.072-0.583 2.235-0.583 3.489" clip-path="url(#clipPath11)"/>
   <path transform="matrix(1.173 0 0 -1.4286 522.11 287.7)" d="m0 0c0-0.362-0.056-0.794-0.166-1.295-0.11-0.502-0.382-0.976-0.811-1.422s-1.072-0.829-1.931-1.149c-0.86-0.32-2.024-0.481-3.492-0.481s-2.624 0.174-3.47 0.523c-0.844 0.348-1.483 0.759-1.91 1.233-0.431 0.474-0.701 0.961-0.811 1.463-0.112 0.502-0.166 0.905-0.166 1.212v29.551c0 0.39-0.056 0.787-0.168 1.192-0.11 0.403-0.276 0.772-0.497 1.107-0.222 0.334-0.498 0.606-0.832 0.815-0.332 0.209-0.72 0.313-1.164 0.313-0.748 0-1.482-0.215-2.202-0.648-0.72-0.432-1.392-0.926-2.016-1.484-0.622-0.556-1.163-1.114-1.62-1.671-0.458-0.558-0.784-0.976-0.976-1.254v-28.005c0-0.362-0.056-0.794-0.166-1.295-0.112-0.502-0.382-0.976-0.811-1.422-0.43-0.446-1.066-0.829-1.912-1.149-0.845-0.32-2.002-0.481-3.47-0.481s-2.626 0.174-3.47 0.523c-0.846 0.348-1.489 0.759-1.933 1.233s-0.719 0.961-0.831 1.463c-0.11 0.502-0.166 0.905-0.166 1.212v32.268c0 0.808-0.187 1.511-0.56 2.11-0.376 0.6-1.006 0.899-1.892 0.899-0.47 0-0.873-0.084-1.205-0.251-0.331-0.166-0.692-0.404-1.08-0.71l-0.873 1.045c0.636 0.529 1.35 1.052 2.14 1.567 0.79 0.516 1.643 0.969 2.555 1.359 0.915 0.39 1.898 0.711 2.951 0.961 1.054 0.251 2.161 0.376 3.325 0.376 1.8 0 3.2-0.299 4.197-0.898 0.998-0.6 1.732-1.317 2.203-2.152 0.471-0.836 0.755-1.708 0.852-2.614 0.096-0.905 0.146-1.665 0.146-2.277 1.302 1.477 2.7 2.8 4.197 3.971 0.608 0.502 1.282 0.988 2.016 1.463 0.732 0.473 1.489 0.898 2.265 1.274 0.775 0.377 1.578 0.675 2.41 0.899 0.831 0.222 1.661 0.334 2.492 0.334 1.608 0 2.979-0.292 4.115-0.877 1.137-0.586 2.049-1.29 2.742-2.111 0.693-0.822 1.199-1.686 1.518-2.592 0.317-0.906 0.477-1.692 0.477-2.361 1.331 1.477 2.729 2.8 4.198 3.971 0.609 0.502 1.273 0.988 1.995 1.463 0.719 0.473 1.474 0.898 2.264 1.274 0.791 0.377 1.593 0.675 2.41 0.899 0.817 0.222 1.643 0.334 2.475 0.334 1.605 0 2.976-0.299 4.112-0.898 1.137-0.6 2.051-1.387 2.744-2.362 0.693-0.976 1.199-2.076 1.516-3.302 0.319-1.226 0.479-2.452 0.479-3.678v-25.873c0-0.251 0.012-0.522 0.042-0.815 0.026-0.293 0.095-0.571 0.207-0.837 0.11-0.264 0.284-0.48 0.518-0.647 0.237-0.168 0.548-0.251 0.936-0.251 0.527 0 0.997 0.188 1.414 0.564 0.415 0.377 0.803 0.759 1.164 1.15l0.997-0.878c-0.39-0.585-0.902-1.233-1.539-1.943-0.636-0.712-1.391-1.387-2.264-2.027-0.874-0.642-1.886-1.178-3.035-1.61-1.149-0.431-2.445-0.648-3.884-0.648-1.219 0-2.279 0.161-3.179 0.481-0.902 0.32-1.664 0.752-2.286 1.295-0.624 0.544-1.089 1.185-1.393 1.923-0.305 0.738-0.457 1.526-0.457 2.362v27.921c0 0.39-0.056 0.787-0.166 1.192-0.112 0.403-0.269 0.772-0.479 1.107-0.207 0.334-0.477 0.606-0.809 0.815-0.333 0.209-0.721 0.313-1.163 0.313-0.749 0-1.491-0.215-2.223-0.648-0.737-0.432-1.415-0.926-2.037-1.484-0.624-0.556-1.157-1.114-1.601-1.671-0.444-0.558-0.761-0.976-0.956-1.254z" clip-path="url(#clipPath13)"/>
   <path transform="matrix(1.173 0 0 -1.4286 576.52 279.52)" d="m0 0c0-0.223 0.097-0.613 0.29-1.17 0.193-0.558 0.5-1.129 0.915-1.714s0.948-1.107 1.599-1.567 1.448-0.69 2.391-0.69c1.218 0 2.257 0.466 3.117 1.401 0.857 0.933 1.564 2.2 2.118 3.803 0.556 1.602 0.956 3.469 1.207 5.601 0.249 2.132 0.373 4.41 0.373 6.834 0 2.982-0.16 5.504-0.477 7.565-0.319 2.063-0.784 3.727-1.394 4.995-0.609 1.268-1.335 2.188-2.181 2.76-0.844 0.57-1.794 0.856-2.846 0.856-0.609 0-1.219-0.174-1.829-0.523-0.61-0.348-1.157-0.779-1.643-1.295-0.483-0.516-0.879-1.094-1.184-1.735s-0.456-1.253-0.456-1.839zm-12.759 26.626c0 0.808-0.186 1.511-0.56 2.11-0.375 0.6-1.006 0.899-1.891 0.899-0.471 0-0.873-0.084-1.205-0.251s-0.693-0.404-1.081-0.71l-0.873 1.045c0.637 0.529 1.35 1.052 2.141 1.567 0.79 0.516 1.642 0.969 2.555 1.359 0.914 0.389 1.897 0.711 2.951 0.961 1.053 0.251 2.161 0.376 3.324 0.376 1.247 0 2.313-0.195 3.2-0.585 0.886-0.391 1.628-0.856 2.224-1.399 0.595-0.544 1.045-1.116 1.35-1.715s0.485-1.107 0.541-1.525c0.554 0.78 1.211 1.49 1.974 2.131 0.762 0.641 1.593 1.191 2.493 1.652 0.9 0.459 1.856 0.815 2.869 1.065 1.01 0.251 2.055 0.376 3.135 0.376 2.217 0 4.225-0.459 6.027-1.379 1.8-0.92 3.345-2.285 4.633-4.096s2.28-4.054 2.972-6.73c0.693-2.675 1.039-5.767 1.039-9.279 0-4.069-0.423-7.531-1.267-10.387-0.846-2.857-1.954-5.19-3.324-7.001-1.373-1.812-2.937-3.129-4.698-3.95-1.759-0.821-3.553-1.233-5.382-1.233-1.522 0-2.86 0.153-4.009 0.459-1.151 0.307-2.14 0.684-2.972 1.13-0.831 0.444-1.524 0.898-2.078 1.358-0.553 0.459-0.997 0.842-1.329 1.149v-20.397c0-0.362-0.056-0.794-0.166-1.296-0.112-0.502-0.382-0.982-0.811-1.442s-1.066-0.857-1.912-1.191c-0.844-0.335-2.001-0.502-3.47-0.502-1.468 0-2.625 0.174-3.469 0.523-0.846 0.348-1.489 0.766-1.933 1.253-0.444 0.489-0.72 0.976-0.832 1.463-0.11 0.488-0.166 0.885-0.166 1.192z" clip-path="url(#clipPath15)"/>
   <path transform="matrix(1.173 0 0 -1.4286 637.11 262.02)" d="m0 0c0 0.696-0.222 1.226-0.666 1.589-0.444 0.36-1.01 0.543-1.702 0.543-0.971 0-1.892-0.224-2.765-0.669-0.873-0.447-1.64-1.101-2.306-1.965s-1.191-1.93-1.578-3.198c-0.39-1.268-0.583-2.737-0.583-4.409 0-1.617 0.118-2.954 0.352-4.013 0.237-1.059 0.556-1.902 0.956-2.528 0.403-0.628 0.867-1.066 1.394-1.317 0.525-0.251 1.081-0.377 1.661-0.377 0.72 0 1.4 0.189 2.037 0.565s1.19 0.857 1.663 1.442c0.471 0.585 0.844 1.239 1.122 1.964 0.276 0.725 0.415 1.449 0.415 2.174zm-6.608 18.308c-0.941 0-1.814-0.112-2.619-0.335-0.802-0.223-1.495-0.501-2.076-0.836-0.583-0.334-1.039-0.704-1.373-1.108-0.332-0.404-0.498-0.787-0.498-1.149 0-0.417 0.214-0.718 0.643-0.899 0.43-0.181 0.909-0.391 1.436-0.627 0.524-0.236 1.003-0.571 1.433-1.003 0.429-0.432 0.645-1.094 0.645-1.986 0-0.584-0.119-1.122-0.355-1.609-0.234-0.487-0.554-0.919-0.956-1.295-0.4-0.376-0.871-0.669-1.412-0.878-0.54-0.209-1.102-0.314-1.682-0.314-1.554 0-2.806 0.529-3.763 1.589-0.956 1.059-1.433 2.466-1.433 4.222 0 1.699 0.442 3.155 1.33 4.367 0.885 1.212 2.043 2.209 3.469 2.989 1.427 0.78 3.041 1.358 4.843 1.735 1.8 0.376 3.6 0.564 5.403 0.564 2.161 0 4.224-0.237 6.19-0.711 1.968-0.473 3.706-1.226 5.216-2.257s2.715-2.34 3.615-3.929c0.9-1.588 1.352-3.511 1.352-5.768v-23.616c0-0.25 0.013-0.529 0.042-0.836 0.027-0.307 0.095-0.585 0.207-0.836 0.11-0.251 0.276-0.459 0.498-0.627 0.222-0.167 0.541-0.25 0.956-0.25 0.5 0 0.962 0.187 1.392 0.564 0.429 0.376 0.81 0.759 1.144 1.149l1.037-0.878c-0.414-0.585-0.912-1.226-1.495-1.922-0.581-0.697-1.288-1.352-2.12-1.965-0.831-0.613-1.8-1.128-2.907-1.546-1.11-0.418-2.371-0.628-3.783-0.628-1.746 0-3.298 0.523-4.654 1.568-1.358 1.045-2.244 2.654-2.661 4.827-0.885-1.197-1.806-2.201-2.762-3.009-0.956-0.809-1.933-1.463-2.931-1.964-0.997-0.502-2.001-0.864-3.013-1.087-1.01-0.223-2.028-0.335-3.053-0.335-1.331 0-2.619 0.21-3.866 0.628-1.246 0.418-2.362 1.079-3.345 1.985-0.983 0.905-1.773 2.083-2.368 3.531-0.598 1.449-0.894 3.219-0.894 5.31 0 2.535 0.498 4.611 1.495 6.228 0.998 1.615 2.306 2.974 3.928 4.075 1.62 1.1 3.464 2.041 5.527 2.82 2.064 0.78 4.177 1.603 6.338 2.467 1.605 0.64 2.777 1.595 3.511 2.863s1.101 2.571 1.101 3.909c0 2.061-0.603 3.712-1.808 4.952s-2.845 1.861-4.924 1.861" clip-path="url(#clipPath17)"/>
   <path transform="matrix(1.173 0 0 -1.4286 680.69 236.1)" d="m0 0v-30.889c0-1.478 0.276-2.502 0.832-3.073 0.553-0.571 1.315-0.856 2.285-0.856 0.749 0 1.412 0.208 1.995 0.626 0.581 0.418 1.081 0.892 1.496 1.422 0.499 0.585 0.929 1.267 1.287 2.048l1.29-0.585c-0.416-0.893-0.908-1.867-1.476-2.926-0.568-1.06-1.323-2.042-2.265-2.947-0.941-0.906-2.126-1.666-3.553-2.278-1.426-0.612-3.22-0.919-5.381-0.919-1.22 0-2.39 0.181-3.512 0.543s-2.119 0.933-2.992 1.713-1.572 1.756-2.099 2.927c-0.527 1.17-0.79 2.576-0.79 4.221v30.973h-4.654v3.009c0.776 0 1.856 0.201 3.241 0.606 1.386 0.404 2.806 1.079 4.26 2.027s2.804 2.216 4.053 3.804c1.246 1.588 2.132 3.553 2.659 5.894h3.324v-12.331h6.773c2.217 0 3.325 0.377 3.325 1.128 0 0.279-0.139 0.467-0.415 0.565-0.278 0.097-0.589 0.223-0.935 0.376-0.347 0.153-0.658 0.369-0.936 0.648-0.275 0.278-0.414 0.738-0.414 1.379 0 0.78 0.242 1.394 0.728 1.84 0.483 0.445 1.113 0.669 1.889 0.669 0.5 0 0.935-0.105 1.311-0.315 0.373-0.208 0.684-0.487 0.933-0.835 0.251-0.349 0.438-0.746 0.562-1.192s0.187-0.892 0.187-1.337c0-1.812-0.519-3.253-1.558-4.326s-2.708-1.609-5.008-1.609z" clip-path="url(#clipPath19)"/>
   <path transform="matrix(1.173 0 0 -1.4286 713.6 242.31)" d="m0 0c1.025 1.477 2.188 2.8 3.49 3.971 0.525 0.501 1.114 0.988 1.765 1.463 0.652 0.473 1.344 0.898 2.078 1.274 0.735 0.377 1.51 0.675 2.327 0.899 0.817 0.222 1.655 0.334 2.516 0.334 1.856 0 3.517-0.362 4.986-1.087 1.468-0.725 2.702-1.937 3.7-3.636 0.997-1.7 1.758-3.95 2.285-6.75 0.525-2.801 0.788-6.278 0.788-10.429 0-4.041-0.359-7.552-1.078-10.533-0.722-2.982-1.664-5.518-2.827-7.607-1.164-2.091-2.48-3.797-3.949-5.121-1.468-1.323-2.949-2.362-4.446-3.114-1.496-0.753-2.937-1.274-4.322-1.568-1.386-0.292-2.576-0.452-3.574-0.48l-0.415 1.713c1.247 0.307 2.354 0.879 3.325 1.714 0.968 0.836 1.786 2.209 2.451 4.117 0.664 1.909 1.17 4.48 1.516 7.712 0.347 3.232 0.521 7.399 0.521 12.499 0 3.511-0.16 6.317-0.479 8.422-0.317 2.103-0.734 3.705-1.247 4.806-0.512 1.1-1.095 1.825-1.744 2.174-0.651 0.348-1.31 0.522-1.974 0.522-0.805 0-1.51-0.216-2.12-0.648-0.609-0.432-1.142-0.926-1.601-1.484-0.456-0.557-0.844-1.115-1.163-1.671-0.317-0.558-0.589-0.976-0.809-1.254v-27.921c0-0.363-0.056-0.802-0.168-1.317-0.11-0.517-0.38-1.003-0.809-1.463-0.431-0.46-1.068-0.851-1.912-1.17-0.846-0.321-2.001-0.481-3.47-0.481-1.47 0-2.634 0.174-3.49 0.522-0.861 0.349-1.504 0.759-1.933 1.233-0.431 0.474-0.701 0.962-0.811 1.463-0.112 0.502-0.166 0.906-0.166 1.213v53.92c0 0.807-0.186 1.51-0.562 2.11-0.373 0.599-1.004 0.899-1.889 0.899-0.473 0-0.882-0.077-1.228-0.23-0.346-0.154-0.713-0.384-1.101-0.69l-0.83 1.004c0.637 0.529 1.342 1.051 2.12 1.567 0.773 0.515 1.626 0.967 2.555 1.358 0.927 0.39 1.918 0.71 2.972 0.961 1.051 0.251 2.161 0.377 3.324 0.377 1.8 0 3.2-0.245 4.198-0.731 0.997-0.489 1.73-1.087 2.202-1.798 0.471-0.711 0.753-1.462 0.851-2.257 0.097-0.794 0.147-1.498 0.147-2.111z" clip-path="url(#clipPath21)"/>
   <path transform="matrix(1.173 0 0 -1.4286 790.62 240.34)" d="m0 0c0-5.1-0.492-10.025-1.475-14.776-0.985-4.751-2.341-9.21-4.073-13.375-1.731-4.167-3.789-7.971-6.172-11.411-2.383-3.442-4.973-6.388-7.771-8.84-2.797-2.453-5.755-4.362-8.872-5.727s-6.267-2.048-9.455-2.048c-2.437 0-4.322 0.411-5.651 1.233-1.33 0.822-1.996 1.929-1.996 3.323 0 0.53 0.085 1.045 0.251 1.546 0.166 0.502 0.388 0.948 0.664 1.338 0.278 0.391 0.61 0.704 0.998 0.94 0.387 0.238 0.804 0.356 1.246 0.356 0.527 0 0.964-0.264 1.311-0.794 0.346-0.529 0.713-1.108 1.101-1.735 0.388-0.628 0.859-1.205 1.412-1.735 0.554-0.529 1.315-0.794 2.286-0.794 1.246 0 2.549 0.216 3.907 0.648 1.356 0.432 2.721 1.052 4.092 1.86 1.373 0.809 2.744 1.791 4.115 2.947 1.37 1.156 2.723 2.445 4.052 3.866-0.776 2.815-1.669 5.887-2.682 9.216-1.01 3.33-2.078 6.682-3.2 10.053s-2.271 6.625-3.449 9.76c-1.178 3.134-2.326 5.914-3.448 8.339-1.122 2.424-2.203 4.368-3.242 5.831s-1.96 2.194-2.762 2.194c-0.527 0-0.936-0.084-1.228-0.251-0.291-0.167-0.629-0.404-1.019-0.71l-0.829 1.045c0.554 0.473 1.136 0.961 1.744 1.463 0.61 0.501 1.332 0.961 2.161 1.379 0.832 0.418 1.802 0.759 2.91 1.024 1.107 0.264 2.437 0.397 3.99 0.397 1.688 0 3.262-0.384 4.716-1.149 1.454-0.767 2.777-2.181 3.97-4.243 0.858-1.533 1.75-3.371 2.679-5.517 0.927-2.146 1.862-4.543 2.806-7.189 0.942-2.649 1.89-5.512 2.846-8.59 0.956-3.079 1.918-6.305 2.889-9.676 1.717 3.622 3.102 7.461 4.156 11.515 1.051 4.055 1.578 8.227 1.578 12.518 0 1.533-0.098 2.843-0.29 3.929-0.195 1.087-0.415 2.013-0.666 2.781-0.249 0.765-0.471 1.42-0.664 1.964-0.195 0.543-0.292 1.024-0.292 1.442s0.168 0.774 0.5 1.066c0.331 0.292 0.734 0.523 1.205 0.69 0.47 0.166 0.947 0.285 1.433 0.354 0.485 0.07 0.893 0.105 1.225 0.105 0.749 0 1.324-0.154 1.726-0.459 0.4-0.307 0.699-0.746 0.894-1.317 0.193-0.572 0.305-1.261 0.331-2.069 0.027-0.809 0.042-1.714 0.042-2.717" clip-path="url(#clipPath23)"/>
  </g>
  <path transform="matrix(1.0757 0 0 -1.1006 174.96 247.3)" d="m0 0c-2.966-15.171-13.859-31.784-31.507-48.028-6.607-6.089-15.329-12.399-25.917-18.775-5.738-3.455-12.169-5.174-18.6-5.174s-12.861 1.719-18.599 5.174c-6.163 3.715-11.772 7.457-16.669 11.134-3.058 2.301-3.677 6.644-1.385 9.702 2.3 3.058 6.643 3.677 9.71 1.377 4.519-3.391 9.73-6.875 15.486-10.34 7.068-4.25 15.846-4.25 22.905 0 9.656 5.812 17.842 11.725 23.681 17.094 15.236 14.035 24.929 28.412 27.285 40.488 4.075 20.891-5.026 36.478-23.755 40.682-17.057 3.825-33.457-13.203-33.623-13.379-0.046-0.046-0.102-0.092-0.148-0.139-0.055-0.055-0.102-0.111-0.157-0.166-0.037-0.028-0.758-0.711-1.968-1.94-2.366-2.412-6.616-6.948-11.162-12.834-9e-3 -0.019-0.018-0.028-0.018-0.028-4.491-5.802-9.277-12.926-12.853-20.604-1.173-2.523-3.677-4.01-6.282-4.01-0.98 0-1.978 0.212-2.92 0.647-3.474 1.616-4.98 5.737-3.363 9.211 9.831 21.122 27.016 37.707 28.947 39.537 0.398 0.416 1.414 1.441 2.957 2.809 6.847 6.061 24.051 18.821 43.62 14.423 4.593-1.035 8.834-2.587 12.677-4.629 6.662-3.548 12.113-8.556 16.068-14.848 6.431-10.229 8.362-23.164 5.59-37.384" clip-path="url(#clipPath25)" fill="#35a866"/>
  <path transform="matrix(1.0757 0 0 -1.1006 137.58 236.7)" d="m0 0c-13.305-35.822-41.236-48.48-63.772-48.48-0.748 0-1.478 0.018-2.217 0.046-5.748 0.212-11.245 1.192-16.373 2.855-11.993 3.871-22.009 11.448-28.569 21.648h-9e-3c-2.671 4.149-4.768 8.723-6.2 13.666-0.065 0.203-0.111 0.416-0.157 0.637-9e-3 0.019-9e-3 0.046-9e-3 0.065-0.01 0.018-0.01 0.046-0.019 0.065-2.735 14.173-0.795 27.053 5.618 37.254 6.227 9.914 16.169 16.65 28.735 19.477 7.844 1.756 16.096 0.942 24.55-2.43 3.548-1.423 5.285-5.451 3.862-9.009-1.414-3.548-5.451-5.285-9-3.862-5.802 2.31-11.309 2.911-16.372 1.774-18.636-4.185-27.738-19.643-23.82-40.377 4.851-16.28 19.838-27.229 38.28-27.913 1.968-0.074 3.881-0.028 5.738 0.111 13.656 1.035 24.596 7.567 32.764 16.345 6.338 6.8 11.004 14.959 13.97 22.951 1.34 3.594 5.322 5.424 8.916 4.084 3.585-1.331 5.415-5.322 4.084-8.907" clip-path="url(#clipPath27)" fill="#35a866"/>
  <path transform="matrix(1.0757 0 0 -1.1006 174.96 247.3)" d="m0 0c-2.966-15.171-13.859-31.784-31.507-48.028-6.607-6.089-15.329-12.399-25.917-18.775-5.738-3.455-12.169-5.174-18.6-5.174s-12.861 1.719-18.599 5.174c-3.253 1.959-6.348 3.927-9.268 5.895-2.614 1.747-5.091 3.502-7.401 5.239-3.058 2.301-3.677 6.644-1.385 9.702 2.3 3.058 6.643 3.677 9.71 1.377 4.519-3.391 9.73-6.875 15.486-10.34 4.555-2.735 9.822-3.714 14.885-2.919h9e-3c2.772 0.434 5.489 1.404 7.983 2.901 0.019 9e-3 0.028 0.018 0.028 0.018 9.656 5.812 17.842 11.725 23.681 17.094 15.236 14.035 24.929 28.412 27.285 40.488 4.075 20.891-5.026 36.478-23.755 40.682-17.057 3.825-33.457-13.203-33.623-13.379-0.046-0.046-0.102-0.092-0.148-0.139-0.055-0.055-0.102-0.111-0.157-0.166-0.102-0.092-6.274-5.904-13.13-14.774 0.629 1.238 22.813 43.703 62.728 37.365 0.01 0 0.028 0 0.037-9e-3 6.662-3.548 12.113-8.556 16.068-14.848 6.431-10.229 8.362-23.164 5.59-37.384" clip-path="url(#clipPath29)" fill="#3fd08f"/>
  <path transform="matrix(1.0757 0 0 -1.1006 18.251 263.04)" d="m0 0h-9e-3c-2.67 4.149-4.768 8.722-6.2 13.665-0.065 0.204-0.111 0.416-0.157 0.638-9e-3 0.018-9e-3 0.046-9e-3 0.065-9e-3 0.018-9e-3 0.046-0.019 0.064-2.735 14.174-0.794 27.054 5.618 37.255 6.227 9.914 16.169 16.649 28.735 19.477 7.845 1.755 16.096 0.942 24.55-2.43 3.548-1.423 5.285-5.452 3.862-9.009-1.414-3.548-5.451-5.285-8.999-3.862-5.803 2.31-11.31 2.91-16.373 1.774-18.636-4.186-27.737-19.644-23.82-40.377 4.851-16.281 19.838-27.23 38.28-27.913 1.968-0.074 3.881-0.028 5.738 0.111 13.656 1.034 24.596 7.567 32.764 16.344 0 0-35.906-44.017-83.961-5.802" clip-path="url(#clipPath31)" fill="#3fd08f"/>
  <path transform="matrix(1.0757 0 0 -1.1006 96.867 310.96)" d="m0 0c-1.044-0.268-23.829-6.043-38.696 2.181-3.058 2.3-3.677 6.643-1.386 9.701 2.301 3.059 6.644 3.678 9.711 1.377 4.518-3.391 9.73-6.874 15.486-10.339 4.555-2.735 9.822-3.715 14.885-2.92" clip-path="url(#clipPath33)" fill="#35a866"/>
 </g>
</svg>
